<?xml version="1.0" encoding="utf-8"?>
<!-- Generator: Adobe Illustrator 24.0.0, SVG Export Plug-In . SVG Version: 6.00 Build 0)  -->
<svg version="1.1" id="Layer_1" xmlns="http://www.w3.org/2000/svg" xmlns:xlink="http://www.w3.org/1999/xlink" x="0px" y="0px"
	 viewBox="0 0 124 125" style="enable-background:new 0 0 124 125;" xml:space="preserve">
<style type="text/css">
	.st0{fill:#FF635E;}
	.st1{clip-path:url(#SVGID_4_);}
	.st2{fill:#FFFFFF;}
</style>
<g>
	<defs>
		<circle id="SVGID_1_" cx="62.5" cy="62.8" r="61.5"/>
	</defs>
	<use xlink:href="#SVGID_1_"  style="overflow:visible;fill:#43A6A7;"/>
	<clipPath id="SVGID_2_">
		<use xlink:href="#SVGID_1_"  style="overflow:visible;"/>
	</clipPath>
</g>
<path class="st0" d="M38.2,92.2c-10.3-13.9-9.8-33.5,1-48.1c6.2-8.4,17-12.7,25.7-12.7L63,124.2c25,0,61-20,61-60.9
	c0-41.1-33-62.1-64-62.1c-13,0-29,6.5-38.2,18.9c-19.7,26.5-14.2,64,12.3,83.7"/>
<g>
	<defs>
		<circle id="SVGID_3_" cx="62.2" cy="62.5" r="61.5"/>
	</defs>
	<clipPath id="SVGID_4_">
		<use xlink:href="#SVGID_3_"  style="overflow:visible;"/>
	</clipPath>
	<g class="st1">
		<g>
			<g>
				<path class="st2" d="M85,27.2V35c0,0-14-5.2-23,4.2c-6.6,6.9-7.1,14.5-4.1,24.8c29.6,0,34.3,16.6,34.3,16.6l-3-19.1l9.3-11.4
					l0,0C98.4,36.7,87.3,27.8,85,27.2z"/>
			</g>
			<g>
				<path class="st2" d="M89.9,84.3"/>
			</g>
			<g>
				<circle cx="87.6" cy="46.3" r="3.6"/>
			</g>
			<g>
				<g>
					<path d="M92.1,80.6c0,0-4.5-22.8-34.1-16.6c-3-10.3-2.5-17.8,4.1-24.8C71,29.8,85,35,85,35v-7.8c-4.9-2.2-9.6-2.6-14.8-2.6
						c-19.1,0-29.6,14.3-34.1,23.9L-17.6,147l15.1-2.9l-27.7,53.5l19.3-3.4L4,152C45.9,152,99.7,137,92.1,80.6z"/>
				</g>
			</g>
			<g>
				<polygon points="110.2,61.6 98.4,50.2 89.1,61.6 				"/>
			</g>
		</g>
	</g>
</g>
<path class="st0" d="M21.8,20.2c-19.7,26.5-14.2,64,12.3,83.7l4.1-11.6c-10.3-13.9-10.1-34.5,0.7-49.1"/>
<path d="M47.5,33c-9.2,8.5-14.9,16.8-16.7,31.9c-1.8,15.3,7.1,26.9,7.1,26.9"/>
<path class="st0" d="M26.9,104.9l14.7-1.3c0.6,0,1-0.5,0.9-1.1l-1.3-14.7c-0.1-0.9-1.2-1.2-1.8-0.6l-13.4,15.9
	C25.5,104,26,105,26.9,104.9z"/>
</svg>
